<svg width="209" height="209" viewBox="0 0 209 209" fill="none" xmlns="http://www.w3.org/2000/svg">
<path d="M116.165 152.48C113.685 152.275 111.382 150.199 111.05 147.706C110.841 146.36 111.228 145.268 112.024 144.472C112.706 143.789 113.671 143.389 114.876 143.456C141.84 145.169 141.8 117.944 141.804 116.811C141.727 114.345 143.759 112.737 146.209 113.253C148.716 113.713 150.735 116.073 150.812 118.539C151.04 131.165 144.149 154.303 116.165 152.48ZM117.695 170.162C145.794 171.304 158.041 157.503 163.38 145.666C169.075 133.049 168.266 120.296 168.141 119.716C167.936 117.236 165.803 114.99 163.31 114.658C160.817 114.326 158.926 116.075 159.131 118.554C159.145 118.682 159.902 129.79 154.964 140.662C148.454 155.082 135.394 161.927 116.094 161.168C115.017 161.114 114.052 161.514 113.37 162.197C112.573 162.993 112.201 164.213 112.409 165.559C112.855 167.938 115.229 170.085 117.695 170.162ZM132.99 116.301C133.041 113.849 131.022 111.488 128.501 110.901C125.98 110.314 123.949 111.922 123.955 114.317C123.939 114.757 123.703 126.577 112.651 125.762C111.447 125.695 110.482 126.095 109.799 126.778C109.06 127.517 108.617 128.667 108.825 130.012C109.157 132.506 111.474 134.709 113.94 134.786C128.732 135.815 132.841 123.089 132.99 116.301Z" fill="#3A7DFF"/>
<path d="M57.2273 116.872C57.4319 114.392 59.5077 112.089 62.001 111.757C63.3466 111.548 64.4392 111.935 65.2354 112.731C65.9178 113.413 66.3178 114.378 66.2508 115.583C64.5381 142.547 91.7628 142.507 92.8965 142.511C95.3623 142.434 96.9703 144.466 96.4538 146.916C95.9943 149.423 93.634 151.442 91.1683 151.519C78.5417 151.747 55.4046 144.856 57.2273 116.872ZM39.5454 118.402C38.4033 146.501 52.204 158.748 64.0409 164.087C76.6584 169.782 89.4107 168.973 89.9914 168.848C92.4709 168.643 94.7173 166.51 95.0494 164.017C95.3815 161.524 93.6322 159.633 91.1527 159.838C91.0252 159.852 79.9167 160.609 69.0448 155.671C54.6248 149.162 47.78 136.101 48.5395 116.801C48.5927 115.724 48.1928 114.759 47.5103 114.077C46.7141 113.28 45.4941 112.908 44.1484 113.116C41.7689 113.562 39.6224 115.936 39.5454 118.402ZM93.4066 133.698C95.8585 133.748 98.2188 131.729 98.8058 129.208C99.3929 126.688 97.7849 124.656 95.3898 124.662C94.9504 124.647 83.1301 124.41 83.9447 113.358C84.0116 112.154 83.6117 111.189 82.9292 110.506C82.1899 109.767 81.0405 109.324 79.6948 109.532C77.2016 109.864 74.9982 112.181 74.9212 114.647C73.8919 129.44 86.6176 133.548 93.4066 133.698Z" fill="#3A7DFF"/>
<path d="M151.066 91.4213C150.861 93.9008 148.785 96.2041 146.292 96.5362C144.946 96.7444 143.854 96.3582 143.058 95.562C142.375 94.8796 141.975 93.9146 142.042 92.7101C143.755 65.746 116.53 65.7855 115.396 65.7819C112.931 65.8589 111.323 63.8271 111.839 61.377C112.299 58.87 114.659 56.851 117.125 56.774C129.751 56.5455 152.888 63.4371 151.066 91.4213ZM168.748 89.8912C169.89 61.7915 156.089 49.5446 144.252 44.2059C131.635 38.5104 118.882 39.3195 118.302 39.4452C115.822 39.6498 113.576 41.7825 113.244 44.2757C112.911 46.7689 114.661 48.6595 117.14 48.4549C117.268 48.4412 128.376 47.6835 139.248 52.6222C153.668 59.1313 160.513 72.1919 159.753 91.4919C159.7 92.5688 160.1 93.5338 160.783 94.2163C161.579 95.0125 162.799 95.3849 164.145 95.1767C166.524 94.7309 168.671 92.3569 168.748 89.8912ZM114.886 74.5953C112.434 74.5449 110.074 76.5639 109.487 79.0846C108.9 81.6054 110.508 83.6372 112.903 83.6307C113.343 83.6463 125.163 83.883 124.348 94.9346C124.281 96.1391 124.681 97.1041 125.364 97.7865C126.103 98.5259 127.252 98.9689 128.598 98.7607C131.091 98.4286 133.295 96.1115 133.372 93.6458C134.401 78.8534 121.675 74.7448 114.886 74.5953Z" fill="#3A7DFF"/>
<path d="M92.1284 57.2273C94.6079 57.4318 96.9112 59.5077 97.2433 62.0009C97.4515 63.3466 97.0654 64.4391 96.2691 65.2353C95.5867 65.9178 94.6217 66.3178 93.4173 66.2508C66.4531 64.5381 66.4927 91.7627 66.489 92.8965C66.5661 95.3622 64.5342 96.9703 62.0841 96.4538C59.5771 95.9942 57.5581 93.634 57.4811 91.1683C57.2526 78.5416 64.1443 55.4045 92.1284 57.2273ZM90.5983 39.5454C62.4986 38.4032 50.2517 52.204 44.913 64.0409C39.2175 76.6584 40.0266 89.4107 40.1523 89.9914C40.3569 92.4708 42.4896 94.7173 44.9828 95.0494C47.4761 95.3814 49.3666 93.6322 49.1621 91.1527C49.1483 91.0252 48.3906 79.9166 53.3293 69.0448C59.8384 54.6248 72.899 47.7799 92.199 48.5395C93.2759 48.5927 94.2409 48.1928 94.9234 47.5103C95.7196 46.7141 96.0921 45.4941 95.8838 44.1484C95.438 41.7689 93.064 39.6224 90.5983 39.5454ZM75.3024 93.4066C75.252 95.8585 77.271 98.2187 79.7917 98.8058C82.3125 99.3929 84.3443 97.7849 84.3379 95.3898C84.3535 94.9504 84.5901 83.13 95.6418 83.9446C96.8462 84.0116 97.8112 83.6117 98.4937 82.9292C99.233 82.1899 99.6761 81.0405 99.4678 79.6948C99.1358 77.2016 96.8186 74.9982 94.3529 74.9211C79.5605 73.8919 75.4519 86.6176 75.3024 93.4066Z" fill="#3A7DFF"/>
<circle cx="105.207" cy="104.5" r="9" transform="rotate(-45 105.207 104.5)" fill="#3A7DFF"/>
</svg>
